# Blender v2.62 (sub 0) OBJ File: 'stage.blend'
# www.blender.org
mtllib objects/bird.mtl
o Mesh.001_Cube
v -2.714190 3.594353 -1.475207
v -2.714190 3.706420 -1.475207
v -2.605994 3.757308 -1.472884
v -2.605994 3.661525 -1.472884
v -2.822386 3.661525 -1.472884
v -2.822386 3.757308 -1.472884
v -2.714190 3.706420 -1.443233
v -2.714190 3.594353 -1.443233
v -2.605994 3.661525 -1.445556
v -2.605994 3.757308 -1.445556
v -2.822386 3.661525 -1.445556
v -2.822386 3.757308 -1.445556
v -2.524371 3.756489 -1.471018
v -2.524371 3.756489 -1.447422
v -2.904009 3.756489 -1.471018
v -2.904009 3.756489 -1.447422
v -2.524371 3.839194 -1.447422
v -2.524371 3.839194 -1.471018
v -2.904009 3.839194 -1.447422
v -2.904009 3.839194 -1.471018
v -2.494942 3.852328 -1.470531
v -2.494942 3.773036 -1.470531
v -2.933437 3.852328 -1.470531
v -2.933437 3.773036 -1.470531
v -2.494942 3.773036 -1.447909
v -2.494942 3.852328 -1.447909
v -2.933437 3.773036 -1.447909
v -2.933437 3.852328 -1.447909
v -2.462872 3.768392 -1.468199
v -2.462872 3.768392 -1.450241
v -2.965508 3.768392 -1.468199
v -2.965508 3.768392 -1.450241
v -2.462872 3.831333 -1.450241
v -2.462872 3.831333 -1.468199
v -2.965508 3.831333 -1.450241
v -2.965508 3.831333 -1.468199
v -2.422958 3.785337 -1.464940
v -2.422958 3.745242 -1.464940
v -3.005422 3.785337 -1.464940
v -3.005422 3.745242 -1.464940
v -2.422958 3.745242 -1.453500
v -2.422958 3.785337 -1.453500
v -3.005422 3.745242 -1.453500
v -3.005422 3.785337 -1.453500
v -2.367045 3.722447 -1.464940
v -2.367045 3.722447 -1.453500
v -3.061335 3.722447 -1.464940
v -3.061335 3.722447 -1.453500
vt 0.500011 0.584805
vt 0.500010 0.453601
vt 0.673609 0.432248
vt 0.628352 0.546569
vt 0.371668 0.546572
vt 0.326409 0.432249
vt 0.480073 0.154861
vt 0.480072 0.000000
vt 0.629619 0.092821
vt 0.629620 0.225180
vt 0.330527 0.092822
vt 0.330527 0.225182
vt 0.500009 0.407452
vt 0.666880 0.397517
vt 0.333138 0.397518
vt 0.500011 0.623547
vt 0.639709 0.576552
vt 0.360312 0.576555
vt 0.779481 0.483605
vt 0.787587 0.513424
vt 0.220536 0.483609
vt 0.212430 0.513429
vt 0.805461 0.357336
vt 0.809846 0.383384
vt 0.194554 0.357337
vt 0.190169 0.383385
vt 0.742439 0.224046
vt 0.742440 0.338332
vt 0.217707 0.224049
vt 0.217707 0.338336
vt 0.840351 0.380688
vt 0.827551 0.473520
vt 0.159663 0.380688
vt 0.172464 0.473524
vt 0.783110 0.246912
vt 0.783111 0.356482
vt 0.177035 0.246915
vt 0.177035 0.356486
vt 0.844000 0.356486
vt 0.156015 0.356486
vt 0.829568 0.505458
vt 0.170447 0.505464
vt 0.876276 0.478292
vt 0.873508 0.504119
vt 0.123736 0.478297
vt 0.126504 0.504126
vt 0.884931 0.379443
vt 0.872613 0.397668
vt 0.115081 0.379442
vt 0.127400 0.397669
vt 0.827544 0.240495
vt 0.827544 0.327469
vt 0.132602 0.240498
vt 0.132601 0.327473
vt 0.928242 0.442704
vt 0.937734 0.494708
vt 0.071766 0.442706
vt 0.062273 0.494715
vt 0.882882 0.208505
vt 0.882883 0.263910
vt 0.077263 0.208507
vt 0.077262 0.263912
vt 0.937056 0.433157
vt 0.062952 0.433159
vt 0.937592 0.510095
vt 0.062415 0.510103
vt 0.980073 0.491497
vt 1.000000 0.495372
vt 0.019929 0.491502
vt 0.000000 0.495377
vt 0.960145 0.177006
vt 0.000000 0.177006
vn 0.021466 0.000000 -0.999770
vn -0.021466 0.000000 -0.999770
vn 0.021466 0.000000 0.999770
vn -0.021466 0.000000 0.999770
vn -0.425605 0.904909 0.000000
vn 0.425605 0.904909 0.000000
vn 0.527451 -0.849586 0.000000
vn -0.527451 -0.849586 0.000000
vn 0.758367 -0.651828 0.000000
vn -0.758367 -0.651828 0.000000
vn -0.708242 0.705970 -0.000003
vn 0.708242 0.705970 -0.000003
vn 0.022851 -0.000001 0.999739
vn -0.022851 -0.000001 0.999739
vn 0.022852 -0.000000 -0.999739
vn -0.022852 -0.000000 -0.999739
vn 0.016541 -0.000000 -0.999863
vn -0.016541 -0.000000 -0.999863
vn 0.016542 -0.000001 0.999863
vn -0.016542 -0.000001 0.999863
vn -0.407575 0.913172 -0.000002
vn 0.407575 0.913172 -0.000002
vn 0.490114 -0.871659 0.000000
vn -0.490114 -0.871659 0.000000
vn -0.143288 -0.989681 0.000000
vn 0.143288 -0.989681 0.000000
vn 0.547729 0.836656 0.000000
vn -0.547729 0.836656 0.000000
vn 0.072541 0.000000 0.997365
vn -0.072541 0.000000 0.997365
vn 0.072545 0.000000 -0.997365
vn -0.072545 0.000000 -0.997365
vn 0.081378 0.000000 -0.996683
vn -0.081378 0.000000 -0.996683
vn 0.081381 0.000000 0.996683
vn -0.081381 0.000000 0.996683
vn 0.755276 0.655406 0.000000
vn -0.755276 0.655406 0.000000
vn -0.501722 -0.865029 0.000000
vn 0.501722 -0.865029 0.000000
vn -0.377515 -0.926003 0.000000
vn 0.377515 -0.926003 0.000000
vn 0.000000 0.000000 1.000000
vn -0.000000 -0.000000 -1.000000
vn 0.747344 0.664438 0.000000
vn -0.747344 0.664438 0.000000
usemtl Material.002_bird_normal
s off
f 1/1/1 2/2/1 3/3/1
f 1/1/1 3/3/1 4/4/1
f 1/1/2 5/5/2 6/6/2
f 1/1/2 6/6/2 2/2/2
f 7/7/3 8/8/3 9/9/3
f 7/7/3 9/9/3 10/10/3
f 11/11/4 8/8/4 7/7/4
f 11/11/4 7/7/4 12/12/4
f 2/2/5 7/13/5 10/14/5
f 2/2/5 10/14/5 3/3/5
f 12/15/6 7/13/6 2/2/6
f 12/15/6 2/2/6 6/6/6
f 8/16/7 1/1/7 4/4/7
f 8/16/7 4/4/7 9/17/7
f 5/5/8 1/1/8 8/16/8
f 5/5/8 8/16/8 11/18/8
f 9/17/9 4/4/9 13/19/9
f 9/17/9 13/19/9 14/20/9
f 15/21/10 5/5/10 11/18/10
f 15/21/10 11/18/10 16/22/10
f 3/3/11 10/14/11 17/23/11
f 3/3/11 17/23/11 18/24/11
f 19/25/12 12/15/12 6/6/12
f 19/25/12 6/6/12 20/26/12
f 10/10/13 9/9/13 14/27/13
f 10/10/13 14/27/13 17/28/13
f 16/29/14 11/11/14 12/12/14
f 16/29/14 12/12/14 19/30/14
f 4/4/15 3/3/15 18/24/15
f 4/4/15 18/24/15 13/19/15
f 20/26/16 6/6/16 5/5/16
f 20/26/16 5/5/16 15/21/16
f 13/19/17 18/24/17 21/31/17
f 13/19/17 21/31/17 22/32/17
f 23/33/18 20/26/18 15/21/18
f 23/33/18 15/21/18 24/34/18
f 17/28/19 14/27/19 25/35/19
f 17/28/19 25/35/19 26/36/19
f 27/37/20 16/29/20 19/30/20
f 27/37/20 19/30/20 28/38/20
f 18/24/21 17/23/21 26/39/21
f 18/24/21 26/39/21 21/31/21
f 28/40/22 19/25/22 20/26/22
f 28/40/22 20/26/22 23/33/22
f 14/20/23 13/19/23 22/32/23
f 14/20/23 22/32/23 25/41/23
f 24/34/24 15/21/24 16/22/24
f 24/34/24 16/22/24 27/42/24
f 25/41/25 22/32/25 29/43/25
f 25/41/25 29/43/25 30/44/25
f 31/45/26 24/34/26 27/42/26
f 31/45/26 27/42/26 32/46/26
f 21/31/27 26/39/27 33/47/27
f 21/31/27 33/47/27 34/48/27
f 35/49/28 28/40/28 23/33/28
f 35/49/28 23/33/28 36/50/28
f 26/36/29 25/35/29 30/51/29
f 26/36/29 30/51/29 33/52/29
f 32/53/30 27/37/30 28/38/30
f 32/53/30 28/38/30 35/54/30
f 22/32/31 21/31/31 34/48/31
f 22/32/31 34/48/31 29/43/31
f 36/50/32 23/33/32 24/34/32
f 36/50/32 24/34/32 31/45/32
f 29/43/33 34/48/33 37/55/33
f 29/43/33 37/55/33 38/56/33
f 39/57/34 36/50/34 31/45/34
f 39/57/34 31/45/34 40/58/34
f 33/52/35 30/51/35 41/59/35
f 33/52/35 41/59/35 42/60/35
f 43/61/36 32/53/36 35/54/36
f 43/61/36 35/54/36 44/62/36
f 34/48/37 33/47/37 42/63/37
f 34/48/37 42/63/37 37/55/37
f 44/64/38 35/49/38 36/50/38
f 44/64/38 36/50/38 39/57/38
f 30/44/39 29/43/39 38/56/39
f 30/44/39 38/56/39 41/65/39
f 40/58/40 31/45/40 32/46/40
f 40/58/40 32/46/40 43/66/40
f 41/65/41 38/56/41 45/67/41
f 41/65/41 45/67/41 46/68/41
f 47/69/42 40/58/42 43/66/42
f 47/69/42 43/66/42 48/70/42
f 41/59/43 46/71/43 42/60/43
f 44/62/43 48/72/43 43/61/43
f 38/56/44 37/55/44 45/67/44
f 47/69/44 39/57/44 40/58/44
f 37/55/45 42/63/45 46/68/45
f 37/55/45 46/68/45 45/67/45
f 48/70/46 44/64/46 39/57/46
f 48/70/46 39/57/46 47/69/46
