# Blender v2.62 (sub 0) OBJ File: 'stage.blend'
# www.blender.org
mtllib objects/stick.mtl
o Mesh.008_Cube.003
v -2.056466 -0.341615 -0.089829
v -2.056466 1.233940 -0.089829
v -2.056466 1.233940 -0.039498
v -2.056466 -0.341615 -0.039498
v -2.275002 -0.341615 -0.039498
v -2.275002 1.233940 -0.039498
v -2.275002 1.233940 -0.089829
v -2.275002 -0.341615 -0.089829
v -2.165734 -0.420623 -0.039499
v -2.220368 -0.399559 -0.039499
v -2.220368 -0.399559 -0.089829
v -2.165734 -0.420623 -0.089829
v -2.165734 1.312948 -0.089829
v -2.220368 1.291884 -0.089829
v -2.220368 1.291884 -0.039498
v -2.165734 1.312948 -0.039498
v -2.111099 -0.399559 -0.089829
v -2.111099 -0.399559 -0.039499
v -2.111099 1.291884 -0.089829
v -2.111099 1.291884 -0.039498
vt 0.136119 0.026972
vt 0.800390 0.026972
vt 0.800415 0.065920
vt 0.136185 0.065920
vt 0.136256 0.026748
vt 0.800442 0.026748
vt 0.800442 0.065915
vt 0.136256 0.065915
vt 0.024739 0.026748
vt 0.080265 0.026748
vt 0.080265 0.065915
vt 0.024739 0.065915
vt 0.911933 0.065915
vt 0.856461 0.065915
vt 0.856461 0.026748
vt 0.911933 0.026748
vt 0.904494 0.519602
vt 0.896883 0.543607
vt 0.028990 0.543607
vt 0.021379 0.519601
vt 0.875948 0.567612
vt 0.049925 0.567611
vt 0.021379 0.519599
vt 0.028990 0.495594
vt 0.896883 0.495594
vt 0.904494 0.519599
vt 0.049925 0.471588
vt 0.875948 0.471588
vt 0.080145 0.026972
vt 0.080202 0.065920
vt 0.024739 0.065920
vt 0.024738 0.026972
vt 0.856337 0.026972
vt 0.856397 0.065920
vt 0.911798 0.026972
vt 0.911862 0.065920
vt 0.875948 0.471591
vt 0.896883 0.495596
vt 0.028990 0.495596
vt 0.049925 0.471591
vt 0.049925 0.567610
vt 0.028990 0.543604
vt 0.896883 0.543604
vt 0.875948 0.567610
vt -0.000000 1.000000
vt 0.000000 -0.000000
vt 1.000000 0.000000
vt 1.000000 1.000000
vn 1.000000 0.000000 0.000000
vn -1.000000 0.000000 0.000000
vn -0.359737 -0.933054 0.000000
vn -0.727586 -0.686017 0.000000
vn -0.359737 0.933054 0.000000
vn -0.727585 0.686018 0.000000
vn -0.000000 -0.000000 1.000000
vn 0.000000 0.000000 -1.000000
vn 0.727586 -0.686017 0.000000
vn 0.359737 -0.933054 0.000000
vn 0.727585 0.686018 0.000000
vn 0.359737 0.933054 0.000000
usemtl Material_woodTexture.JPG_woodTexture.JPG
s off
f 1/1/1 2/2/1 3/3/1
f 1/1/1 3/3/1 4/4/1
f 5/5/2 6/6/2 7/7/2
f 5/5/2 7/7/2 8/8/2
f 9/9/3 10/10/3 11/11/3
f 9/9/3 11/11/3 12/12/3
f 10/10/4 5/5/4 8/8/4
f 10/10/4 8/8/4 11/11/4
f 13/13/5 14/14/5 15/15/5
f 13/13/5 15/15/5 16/16/5
f 14/14/6 7/7/6 6/6/6
f 14/14/6 6/6/6 15/15/6
f 16/17/7 15/18/7 10/19/7
f 16/17/7 10/19/7 9/20/7
f 15/18/7 6/21/7 5/22/7
f 15/18/7 5/22/7 10/19/7
f 12/23/8 11/24/8 14/25/8
f 12/23/8 14/25/8 13/26/8
f 11/24/8 8/27/8 7/28/8
f 11/24/8 7/28/8 14/25/8
f 17/29/9 1/1/9 4/4/9
f 17/29/9 4/4/9 18/30/9
f 18/30/10 9/31/10 12/32/10
f 18/30/10 12/32/10 17/29/10
f 2/2/11 19/33/11 20/34/11
f 2/2/11 20/34/11 3/3/11
f 19/33/12 13/35/12 16/36/12
f 19/33/12 16/36/12 20/34/12
f 3/37/7 20/38/7 18/39/7
f 3/37/7 18/39/7 4/40/7
f 20/38/7 16/17/7 9/20/7
f 20/38/7 9/20/7 18/39/7
f 1/41/8 17/42/8 19/43/8
f 1/41/8 19/43/8 2/44/8
f 17/42/8 12/23/8 13/26/8
f 17/42/8 13/26/8 19/43/8
f 12/45/2 9/46/2 16/47/2
f 12/45/2 16/47/2 13/48/2
f 11/45/2 10/46/2 15/47/2
f 11/45/2 15/47/2 14/48/2
f 17/45/2 18/46/2 20/47/2
f 17/45/2 20/47/2 19/48/2
